G04*
G04 #@! TF.GenerationSoftware,Altium Limited,Altium Designer,18.0.12 (696)*
G04*
G04 Layer_Color=10964583*
%FSLAX44Y44*%
%MOMM*%
G71*
G01*
G75*
%ADD10R,1.0532X1.2032*%
%ADD11R,1.2032X1.0532*%
%ADD12R,1.1532X1.2032*%
%ADD13R,1.2032X1.9532*%
%ADD14R,2.0532X0.8032*%
%ADD15R,1.2032X1.1532*%
%ADD16R,0.7032X0.9532*%
%ADD17C,2.0032*%
%ADD18C,1.5032*%
%ADD19C,1.7032*%
%ADD20C,1.8032*%
%ADD21C,2.1032*%
%ADD22C,2.2032*%
%ADD23R,2.2032X2.2032*%
%ADD24R,2.7032X2.7032*%
%ADD25C,2.7032*%
%ADD26R,2.1032X2.1032*%
%ADD27R,2.5032X2.5032*%
%ADD28C,2.5032*%
%ADD29C,2.4032*%
%ADD30C,4.2032*%
D10*
X1285500Y600000D02*
D03*
X1269500D02*
D03*
X1417000Y535000D02*
D03*
X1433000D02*
D03*
D11*
X1210000Y540500D02*
D03*
Y524500D02*
D03*
X1207500Y488000D02*
D03*
Y472000D02*
D03*
X1235000Y585500D02*
D03*
Y569500D02*
D03*
X1329957Y544000D02*
D03*
Y528000D02*
D03*
X1215000Y611500D02*
D03*
Y627500D02*
D03*
D12*
X1189500Y505542D02*
D03*
X1205500D02*
D03*
X1312000Y582500D02*
D03*
X1328000D02*
D03*
D13*
X1304500Y435000D02*
D03*
X1275500D02*
D03*
D14*
X1304415Y553300D02*
D03*
Y540600D02*
D03*
Y527900D02*
D03*
Y515200D02*
D03*
Y502500D02*
D03*
Y489800D02*
D03*
Y477100D02*
D03*
Y464400D02*
D03*
X1234415D02*
D03*
Y477100D02*
D03*
Y489800D02*
D03*
Y502500D02*
D03*
Y515200D02*
D03*
Y527900D02*
D03*
Y540600D02*
D03*
Y553300D02*
D03*
D15*
X1187500Y525000D02*
D03*
Y541000D02*
D03*
X1348000Y529000D02*
D03*
Y513000D02*
D03*
D16*
X1165000Y539500D02*
D03*
Y525500D02*
D03*
D17*
X1472500Y860000D02*
D03*
X1247500D02*
D03*
X1490457Y590000D02*
D03*
Y440000D02*
D03*
X1127500Y755000D02*
D03*
X1402500D02*
D03*
X1630000D02*
D03*
X1480000D02*
D03*
X1802044Y860000D02*
D03*
X1527044D02*
D03*
D18*
X1335400Y660400D02*
D03*
X1310000Y635000D02*
D03*
X1284600Y660400D02*
D03*
X1422700Y490400D02*
D03*
X1397300Y465000D02*
D03*
X1422700Y439600D02*
D03*
D19*
X1426700Y680000D02*
D03*
X1528300D02*
D03*
X1527941Y640000D02*
D03*
X1426342D02*
D03*
X1396500Y639300D02*
D03*
Y537700D02*
D03*
D20*
X1310000Y690000D02*
D03*
X1370000Y430000D02*
D03*
X1140000Y545000D02*
D03*
X1962500Y752500D02*
D03*
D21*
X1165000Y594600D02*
D03*
Y620000D02*
D03*
Y645400D02*
D03*
Y670800D02*
D03*
X1880000Y728400D02*
D03*
Y753800D02*
D03*
Y830000D02*
D03*
Y855400D02*
D03*
Y880800D02*
D03*
D22*
X1885000Y594600D02*
D03*
Y620000D02*
D03*
D23*
Y645400D02*
D03*
D24*
X1946022Y679600D02*
D03*
D25*
Y625000D02*
D03*
Y570400D02*
D03*
D26*
X1880000Y703000D02*
D03*
D27*
X1670000Y685000D02*
D03*
D28*
Y448000D02*
D03*
D29*
X1665150Y755000D02*
D03*
X1804850D02*
D03*
D30*
X1980000Y860000D02*
D03*
X1152500Y860000D02*
D03*
X1150000Y460000D02*
D03*
X1980000D02*
D03*
M02*
