M48
;Layer_Color=9474304
;FILE_FORMAT=4:4
METRIC,TZ
;TYPE=PLATED
T1F00S00C0.4000
T2F00S00C0.5000
T3F00S00C0.8000
T4F00S00C1.0000
T5F00S00C1.1000
T6F00S00C1.2000
T7F00S00C1.4000
T8F00S00C1.5000
T9F00S00C1.8000
T10F00S00C3.0000
%
T01
X1600000Y550000
X1867500Y477500
X1337997Y501999
X1325000Y490000
X1320000Y560000
X1285500Y527500
X1255000Y515000
X1262500Y585500
T02
X1987500Y517500
X2010000
X2002500Y542500
X2003000Y570000
X2010000Y620000
Y660000
Y710000
Y750000
Y790000
X1957500Y512500
X1942500Y502500
X1927500Y525000
X1902500
X1857500
X1835000
X1810000
X1770000Y530000
Y510000
X1750000Y502500
Y490000
Y472500
X1755000Y425000
X1782500
X1810000
X1837500
X1865000
X1892500
X1925000
Y450000
Y472500
X1810000Y570000
X1787500
X1770000
X1747500
X1732500
X1747500Y585000
X1710000Y600000
X1690000
X1670000
Y620000
X1690000
X1710000
X1730000Y630000
X1650000Y610000
X1640000Y590000
X1620000Y570000
X1615250Y504250
X1592750
X1592500Y425000
X1612500
X1632500
X1705000Y432500
X1730000Y435000
X1750000Y530000
X1560000Y520000
X1567500Y500000
X1545000
X1530000Y520000
X1535457Y425000
X1555000Y425000
X1575000
X1372500Y450000
X1325000Y445000
X1252500Y432500
X1222500
X1210000Y460000
X1254000Y465000
X1285000Y507500
X1282500Y542500
X1367500Y525000
X1380000Y520000
Y500000
X1360000Y730000
Y770000
X1295000Y790000
X1250000
X1210000
X1230000Y745000
Y697500
Y667500
Y635000
X1215000Y642500
X1470000Y790000
X1490000
X1170000
X1120000Y690000
Y660000
Y630000
Y600000
X1122500Y567500
X1140000
X1190000Y560000
X1330000Y810000
X1360000Y800000
Y830000
Y860000
X1390000
X1420000
Y830000
Y810000
X1390000
Y830000
Y890000
X1420000
X1360000
X1480000Y810000
X1580000Y890000
X1600000Y870000
X1620000Y850000
X1630000Y880000
X1660000
X1690000
Y850000
X1660000
Y820000
X1690000
X1710000Y830000
X1720000Y850000
Y880000
X1740000
X1780000Y890000
X1810000
T03
X1397300Y465000
X1422700Y490400
Y439600
X1396500Y537700
Y639300
X1426342Y640000
X1426700Y680000
X1528300
X1527941Y640000
X1335400Y660400
X1310000Y635000
X1284600Y660400
T04
X1520000Y450000
T05
X1630000Y755000
X1962500Y752500
X1480000Y755000
X1402500
X1310000Y690000
X1490457Y590000
Y440000
X1370000Y430000
X1140000Y545000
X1127500Y755000
X1247500Y860000
X1472500
X1527044
X1802044
T06
X1885000Y594600
Y620000
Y645400
X1880000Y703000
Y728400
Y753800
X1165000Y670800
Y645400
Y620000
Y594600
X1880000Y830000
Y855400
Y880800
T07
X1670000Y448000
Y685000
T08
X1665150Y755000
X1804850
T09
X1946022Y570400
Y625000
Y679600
T10
X1980000Y460000
X1150000
X1152500Y860000
X1980000Y860000
M30
