G04*
G04 #@! TF.GenerationSoftware,Altium Limited,Altium Designer,18.0.12 (696)*
G04*
G04 Layer_Physical_Order=1*
G04 Layer_Color=794757*
%FSLAX44Y44*%
%MOMM*%
G71*
G01*
G75*
%ADD31R,0.8500X1.0000*%
%ADD32R,1.0000X0.8500*%
%ADD33R,0.9500X1.0000*%
%ADD34R,1.0000X1.7500*%
%ADD35R,1.8500X0.6000*%
%ADD36R,1.0000X0.9500*%
%ADD37R,0.5000X0.7500*%
%ADD38C,0.5000*%
%ADD39C,2.0000*%
%ADD40C,1.0000*%
%ADD41C,0.3000*%
%ADD42C,0.7000*%
%ADD43C,1.8000*%
%ADD44C,1.3000*%
%ADD45C,1.5000*%
%ADD46C,1.6000*%
%ADD47C,1.9000*%
%ADD48C,2.0000*%
%ADD49R,2.0000X2.0000*%
%ADD50R,2.5000X2.5000*%
%ADD51C,2.5000*%
%ADD52R,1.9000X1.9000*%
%ADD53R,2.3000X2.3000*%
%ADD54C,2.3000*%
%ADD55C,2.2000*%
%ADD56C,4.0000*%
%ADD57C,1.0000*%
G36*
X1842621Y900000D02*
X1843829Y898000D01*
X1841840Y893199D01*
X1840370Y887077D01*
X1839876Y880800D01*
Y876620D01*
X1815880Y852624D01*
X1813180D01*
X1812307Y854624D01*
X1813286Y856988D01*
X1813516Y858730D01*
X1802044D01*
X1790571D01*
X1790801Y856988D01*
X1791780Y854624D01*
X1790907Y852624D01*
X1772500D01*
X1766223Y852130D01*
X1760101Y850660D01*
X1754284Y848251D01*
X1748916Y844961D01*
X1744128Y840872D01*
X1698380Y795124D01*
X1673653D01*
X1671584Y795620D01*
X1665150Y796127D01*
X1658716Y795620D01*
X1656647Y795124D01*
X1646620D01*
X1561633Y880110D01*
X1559504Y883584D01*
X1555415Y888372D01*
X1550628Y892461D01*
X1545259Y895751D01*
X1539828Y898000D01*
X1540226Y900000D01*
X1842621Y900000D01*
D02*
G37*
G36*
X1930000D02*
Y861637D01*
X1929893Y860000D01*
X1930000Y858363D01*
Y840000D01*
X1939731Y830269D01*
X1940247Y829497D01*
X1944569Y824569D01*
X1949497Y820247D01*
X1950269Y819731D01*
X1960000Y810000D01*
X1978362D01*
X1980000Y809893D01*
X1981638Y810000D01*
X2020000D01*
Y630000D01*
X1983537Y593537D01*
X1981546Y593733D01*
X1979812Y596328D01*
X1978609Y597700D01*
X1979812Y599072D01*
X1982908Y603704D01*
X1985372Y608701D01*
X1987162Y613977D01*
X1988249Y619441D01*
X1988614Y625000D01*
X1988249Y630559D01*
X1987346Y635100D01*
X1988523Y637100D01*
X1988522D01*
Y722100D01*
X1903523D01*
Y685400D01*
X1850000D01*
Y699000D01*
X1851000Y700000D01*
X1841000Y710000D01*
X1821743D01*
X1819169Y712575D01*
X1827209Y720616D01*
X1829024Y721728D01*
X1833931Y725919D01*
X1838122Y730826D01*
X1841494Y736329D01*
X1843964Y742291D01*
X1845470Y748566D01*
X1845977Y755000D01*
X1845470Y761434D01*
X1843964Y767709D01*
X1842325Y771665D01*
X1843519Y774009D01*
X1844899Y774340D01*
X1850716Y776749D01*
X1856084Y780039D01*
X1860872Y784128D01*
X1868393Y791650D01*
X1873723Y790370D01*
X1880000Y789876D01*
X1886277Y790370D01*
X1892399Y791840D01*
X1898216Y794249D01*
X1903584Y797539D01*
X1908372Y801628D01*
X1912461Y806416D01*
X1915750Y811784D01*
X1918160Y817601D01*
X1919630Y823723D01*
X1920124Y830000D01*
Y855400D01*
Y880800D01*
X1919630Y887077D01*
X1918160Y893199D01*
X1916171Y898000D01*
X1917379Y900000D01*
X1930000D01*
D02*
G37*
G36*
X1459317Y900000D02*
X1459715Y898000D01*
X1454284Y895751D01*
X1448916Y892461D01*
X1444128Y888372D01*
X1440039Y883584D01*
X1436750Y878216D01*
X1434340Y872399D01*
X1432870Y866277D01*
X1432376Y860000D01*
X1432870Y853723D01*
X1434340Y847601D01*
X1436750Y841784D01*
X1440039Y836416D01*
X1444128Y831628D01*
X1448916Y827539D01*
X1454284Y824249D01*
X1460101Y821840D01*
X1466223Y820370D01*
X1472500Y819876D01*
X1508380D01*
X1533166Y795090D01*
X1532970Y794392D01*
X1532366Y793062D01*
X1526784Y790751D01*
X1521416Y787461D01*
X1516628Y783372D01*
X1492781Y759525D01*
X1490422Y759994D01*
X1490080Y760820D01*
X1488230Y763230D01*
X1485820Y765080D01*
X1483013Y766243D01*
X1480000Y766639D01*
X1476987Y766243D01*
X1474180Y765080D01*
X1471770Y763230D01*
X1469920Y760820D01*
X1468757Y758012D01*
X1468654Y757232D01*
X1466644Y757284D01*
X1466330Y761277D01*
X1464860Y767399D01*
X1462451Y773216D01*
X1459161Y778584D01*
X1455072Y783372D01*
X1450284Y787461D01*
X1444916Y790751D01*
X1439099Y793160D01*
X1432977Y794630D01*
X1426700Y795124D01*
X1402500D01*
X1396223Y794630D01*
X1390101Y793160D01*
X1384284Y790751D01*
X1378916Y787461D01*
X1374128Y783372D01*
X1370039Y778584D01*
X1366750Y773216D01*
X1364340Y767399D01*
X1362870Y761277D01*
X1362376Y755000D01*
X1362870Y748723D01*
X1364340Y742601D01*
X1366750Y736784D01*
X1370039Y731416D01*
X1374128Y726628D01*
X1378916Y722539D01*
X1384284Y719249D01*
X1386576Y718300D01*
Y715000D01*
Y680000D01*
X1386925Y675567D01*
X1384876Y675075D01*
X1379423Y672816D01*
X1374390Y669732D01*
X1369901Y665899D01*
X1366068Y661410D01*
X1362984Y656377D01*
X1360725Y650924D01*
X1359347Y645184D01*
X1358884Y639300D01*
X1359347Y633416D01*
X1360725Y627676D01*
X1362984Y622223D01*
X1366068Y617190D01*
X1368582Y614246D01*
X1367112Y612887D01*
X1362750Y617250D01*
Y617500D01*
X1362500D01*
X1345776Y634224D01*
Y619737D01*
X1365776Y599737D01*
X1377276Y588237D01*
X1424276D01*
X1425776Y589737D01*
X1455776Y559737D01*
Y549737D01*
X1465776Y539737D01*
X1554601D01*
X1555430Y537737D01*
X1507872Y490179D01*
X1453770D01*
X1451804Y489788D01*
X1450137Y488674D01*
X1443702Y482239D01*
X1430199D01*
X1429645Y483141D01*
X1429367Y484239D01*
X1430596Y485841D01*
X1431507Y488040D01*
X1431818Y490400D01*
X1431603Y492035D01*
X1436634Y497066D01*
X1437748Y498733D01*
X1438139Y500700D01*
Y527460D01*
X1439790D01*
Y542540D01*
X1426210D01*
Y527460D01*
X1427861D01*
Y502828D01*
X1424335Y499303D01*
X1422700Y499518D01*
X1420340Y499207D01*
X1418141Y498296D01*
X1416253Y496847D01*
X1414804Y494959D01*
X1413893Y492760D01*
X1413582Y490400D01*
X1413893Y488040D01*
X1414804Y485841D01*
X1416033Y484239D01*
X1415755Y483141D01*
X1415201Y482239D01*
X1330556D01*
X1329877Y484239D01*
X1330378Y484622D01*
X1331586Y486198D01*
X1332346Y488032D01*
X1332605Y490000D01*
X1332346Y491968D01*
X1331586Y493802D01*
X1331342Y494121D01*
X1331620Y495653D01*
X1332134Y496374D01*
X1332870Y496429D01*
X1334195Y495413D01*
X1336029Y494653D01*
X1337997Y494394D01*
X1339966Y494653D01*
X1341800Y495413D01*
X1343375Y496621D01*
X1344583Y498196D01*
X1345343Y500031D01*
X1345602Y501999D01*
X1345377Y503710D01*
X1345616Y504505D01*
X1346421Y505710D01*
X1346730D01*
Y511730D01*
X1340460D01*
Y511193D01*
X1338460Y509543D01*
X1337997Y509604D01*
X1336029Y509345D01*
X1334195Y508585D01*
X1332961Y507639D01*
X1316606D01*
X1316205Y508040D01*
Y509660D01*
X1316205Y510040D01*
Y513930D01*
X1292625D01*
Y510040D01*
X1292625Y509660D01*
Y508040D01*
X1292625Y507660D01*
Y496960D01*
X1292625D01*
Y495340D01*
X1292625D01*
Y484640D01*
X1292625Y484260D01*
Y482640D01*
X1292625Y482260D01*
Y471560D01*
X1292625D01*
Y469940D01*
X1292625D01*
Y458860D01*
X1299276D01*
Y446290D01*
X1296960D01*
Y423710D01*
X1312040D01*
Y446290D01*
X1309554D01*
Y458860D01*
X1316205D01*
Y469940D01*
X1316205D01*
Y469961D01*
X1318039Y471961D01*
X1388726D01*
X1389712Y469961D01*
X1389404Y469559D01*
X1388493Y467360D01*
X1388349Y466270D01*
X1397300D01*
X1406251D01*
X1406107Y467360D01*
X1405196Y469559D01*
X1404888Y469961D01*
X1405874Y471961D01*
X1445830D01*
X1447797Y472352D01*
X1449464Y473466D01*
X1455899Y479901D01*
X1510000D01*
X1511967Y480293D01*
X1513634Y481406D01*
X1577089Y544861D01*
X1594439D01*
X1594622Y544622D01*
X1596198Y543414D01*
X1598032Y542654D01*
X1600000Y542395D01*
X1601968Y542654D01*
X1603802Y543414D01*
X1605378Y544622D01*
X1606586Y546198D01*
X1607346Y548032D01*
X1607605Y550000D01*
X1607346Y551968D01*
X1606586Y553802D01*
X1605378Y555378D01*
X1603802Y556586D01*
X1601968Y557346D01*
X1600000Y557605D01*
X1598032Y557346D01*
X1596198Y556586D01*
X1594622Y555378D01*
X1594439Y555139D01*
X1574960D01*
X1573770Y554902D01*
X1572784Y556745D01*
X1655776Y639737D01*
X1705776D01*
X1755776Y639737D01*
X1845776Y549737D01*
X1877395D01*
Y512528D01*
X1862122Y497255D01*
X1860914Y495680D01*
X1860154Y493846D01*
X1859895Y491877D01*
Y477500D01*
X1860154Y475532D01*
X1860914Y473698D01*
X1862122Y472122D01*
X1863698Y470914D01*
X1865532Y470154D01*
X1867500Y469895D01*
X1869468Y470154D01*
X1871302Y470914D01*
X1872878Y472122D01*
X1874086Y473698D01*
X1874846Y475532D01*
X1875105Y477500D01*
Y488727D01*
X1890378Y504000D01*
X1891586Y505575D01*
X1891901Y506335D01*
X1892346Y507409D01*
X1892605Y509377D01*
Y549737D01*
X1942531D01*
X1948306Y555512D01*
X1948971Y555578D01*
X1951806Y556438D01*
X1954419Y557834D01*
X1956709Y559714D01*
X1958588Y562004D01*
X1959985Y564617D01*
X1960845Y567452D01*
X1960910Y568116D01*
X2011909Y619114D01*
X2013756Y618349D01*
X2013756Y510000D01*
X1960000D01*
X1930000Y480000D01*
Y419737D01*
X1377224Y419737D01*
X1376546Y421737D01*
X1377517Y422483D01*
X1379207Y424684D01*
X1380269Y427248D01*
X1380464Y428730D01*
X1359536D01*
X1359731Y427248D01*
X1360793Y424684D01*
X1362483Y422483D01*
X1363454Y421737D01*
X1362776Y419737D01*
X1200000D01*
Y465210D01*
X1206230D01*
Y472000D01*
Y478790D01*
X1201685D01*
X1201537Y479210D01*
X1202951Y481210D01*
X1215040D01*
Y482861D01*
X1220717D01*
X1222625Y482640D01*
X1222625Y480861D01*
Y478370D01*
X1246205D01*
Y482260D01*
X1246205Y482640D01*
Y484260D01*
X1246205Y484640D01*
Y494960D01*
X1246205Y495340D01*
Y496960D01*
X1246205Y497340D01*
Y507660D01*
X1246205Y508040D01*
X1246636Y509861D01*
X1249439D01*
X1249622Y509622D01*
X1251198Y508414D01*
X1253032Y507654D01*
X1254500Y507461D01*
X1255000Y507361D01*
X1255500Y507461D01*
X1256968Y507654D01*
X1258802Y508414D01*
X1260378Y509622D01*
X1261586Y511198D01*
X1262346Y513032D01*
X1262605Y515000D01*
X1262346Y516968D01*
X1261586Y518802D01*
X1260378Y520378D01*
X1258802Y521586D01*
X1256968Y522346D01*
X1255000Y522605D01*
X1253032Y522346D01*
X1251198Y521586D01*
X1249622Y520378D01*
X1249439Y520139D01*
X1246806D01*
X1246205Y520740D01*
Y522360D01*
X1246606Y522761D01*
X1247900D01*
X1249866Y523152D01*
X1251534Y524266D01*
X1302710Y575443D01*
X1304710Y574960D01*
Y574960D01*
X1318710D01*
X1319290Y574960D01*
X1320710D01*
X1321290Y574960D01*
X1324901D01*
Y568101D01*
X1322901Y566960D01*
X1321969Y567346D01*
X1320000Y567605D01*
X1318032Y567346D01*
X1316198Y566586D01*
X1314622Y565378D01*
X1313414Y563803D01*
X1312654Y561968D01*
X1312395Y560000D01*
X1310798Y558840D01*
X1292625D01*
Y547760D01*
X1292625D01*
Y546140D01*
X1292625D01*
Y535440D01*
X1292625Y535060D01*
Y533344D01*
X1290625Y533071D01*
X1289303Y534086D01*
X1287468Y534846D01*
X1285500Y535105D01*
X1283532Y534846D01*
X1281698Y534086D01*
X1280122Y532878D01*
X1278914Y531302D01*
X1278154Y529468D01*
X1277895Y527500D01*
X1278154Y525532D01*
X1278914Y523698D01*
X1280122Y522122D01*
X1281698Y520914D01*
X1283532Y520154D01*
X1285500Y519895D01*
X1287468Y520154D01*
X1289303Y520914D01*
X1290625Y521928D01*
X1291464Y521777D01*
X1292625Y520360D01*
Y516470D01*
X1316205D01*
Y520360D01*
X1316205Y520740D01*
Y522360D01*
X1316706Y522861D01*
X1322417D01*
Y521210D01*
X1337498D01*
Y522406D01*
X1339497Y522673D01*
X1340460Y521710D01*
Y520290D01*
X1340460Y519710D01*
Y514270D01*
X1348000D01*
X1355540D01*
Y519710D01*
X1355540Y520290D01*
Y521710D01*
X1355540Y522290D01*
Y536290D01*
X1340460D01*
Y533139D01*
X1337498D01*
Y534790D01*
X1325619D01*
X1324618Y536790D01*
X1324932Y537210D01*
X1337498D01*
Y550790D01*
X1335179D01*
Y574960D01*
X1335290D01*
Y590040D01*
X1321290D01*
X1320710Y590040D01*
X1319290D01*
X1318710Y590040D01*
X1304710D01*
Y587639D01*
X1302500D01*
X1300533Y587248D01*
X1298866Y586134D01*
X1248205Y535472D01*
X1246205Y536301D01*
Y545760D01*
X1246205Y546140D01*
Y547760D01*
X1246205Y548140D01*
Y558840D01*
X1240139D01*
Y562710D01*
X1242540D01*
Y576290D01*
X1227460D01*
Y562710D01*
X1229861D01*
Y558840D01*
X1222625D01*
Y548140D01*
X1222625Y547760D01*
Y546140D01*
X1222124Y545639D01*
X1217540D01*
Y547290D01*
X1215139D01*
Y555372D01*
X1218634Y558866D01*
X1219748Y560533D01*
X1220139Y562500D01*
Y594861D01*
X1260517D01*
X1260648Y592861D01*
X1260532Y592846D01*
X1258698Y592086D01*
X1257122Y590878D01*
X1256939Y590639D01*
X1242540D01*
Y592290D01*
X1227460D01*
Y578710D01*
X1242540D01*
Y580361D01*
X1256939D01*
X1257122Y580122D01*
X1258698Y578914D01*
X1260532Y578154D01*
X1262500Y577895D01*
X1264468Y578154D01*
X1266302Y578914D01*
X1267878Y580122D01*
X1269086Y581698D01*
X1269846Y583532D01*
X1270105Y585500D01*
X1269846Y587468D01*
X1269086Y589302D01*
X1268198Y590460D01*
X1268647Y591875D01*
X1269098Y592460D01*
X1276290D01*
Y607540D01*
X1262710D01*
Y605139D01*
X1222540D01*
Y618290D01*
X1207460D01*
Y604710D01*
X1209861D01*
Y600000D01*
Y564628D01*
X1206366Y561134D01*
X1205252Y559467D01*
X1204861Y557500D01*
Y547290D01*
X1202460D01*
Y546139D01*
X1195040D01*
Y548290D01*
X1179960D01*
Y544912D01*
X1179424Y544806D01*
X1178087Y543913D01*
X1177794Y543619D01*
X1170040D01*
Y545790D01*
X1159960D01*
Y533790D01*
X1159960Y533210D01*
Y531790D01*
X1159960Y531210D01*
Y519210D01*
X1170040D01*
Y520881D01*
X1179960D01*
Y517710D01*
X1195040D01*
Y519861D01*
X1202460D01*
Y517710D01*
X1217540D01*
Y519861D01*
X1219500D01*
X1220625Y520085D01*
X1222386Y518957D01*
X1222625Y518621D01*
Y509971D01*
X1221703Y509144D01*
X1221038Y508724D01*
X1220928Y508771D01*
X1219466Y509748D01*
X1217500Y510139D01*
X1212790D01*
Y513083D01*
X1198790D01*
X1198210Y513083D01*
X1196790D01*
X1196210Y513083D01*
X1190770D01*
Y505542D01*
X1189500D01*
Y504272D01*
X1182210D01*
Y500619D01*
X1180210Y499790D01*
X1170000Y510000D01*
X1105776D01*
Y810000D01*
X1170000D01*
X1200000Y840000D01*
Y899737D01*
X1340000D01*
Y900000D01*
X1459317D01*
D02*
G37*
%LPC*%
G36*
X1803314Y871472D02*
Y861270D01*
X1813516D01*
X1813286Y863012D01*
X1812124Y865820D01*
X1810274Y868230D01*
X1807863Y870080D01*
X1805056Y871243D01*
X1803314Y871472D01*
D02*
G37*
G36*
X1800774Y871472D02*
X1799031Y871243D01*
X1796224Y870080D01*
X1793813Y868230D01*
X1791963Y865820D01*
X1790801Y863012D01*
X1790571Y861270D01*
X1800774D01*
Y871472D01*
D02*
G37*
G36*
X1881270Y765777D02*
Y755070D01*
X1891977D01*
X1891730Y756943D01*
X1890517Y759872D01*
X1888587Y762387D01*
X1886072Y764317D01*
X1883143Y765530D01*
X1881270Y765777D01*
D02*
G37*
G36*
X1878730Y765777D02*
X1876857Y765530D01*
X1873928Y764317D01*
X1871413Y762387D01*
X1869483Y759872D01*
X1868270Y756943D01*
X1868023Y755070D01*
X1878730D01*
Y765777D01*
D02*
G37*
G36*
X1963770Y762964D02*
Y753770D01*
X1972964D01*
X1972769Y755251D01*
X1971707Y757815D01*
X1970017Y760017D01*
X1967816Y761707D01*
X1965251Y762769D01*
X1963770Y762964D01*
D02*
G37*
G36*
X1961230D02*
X1959749Y762769D01*
X1957185Y761707D01*
X1954983Y760017D01*
X1953293Y757815D01*
X1952231Y755251D01*
X1952036Y753770D01*
X1961230D01*
Y762964D01*
D02*
G37*
G36*
X1972964Y751230D02*
X1963770D01*
Y742036D01*
X1965251Y742231D01*
X1967816Y743293D01*
X1970017Y744983D01*
X1971707Y747185D01*
X1972769Y749749D01*
X1972964Y751230D01*
D02*
G37*
G36*
X1961230D02*
X1952036D01*
X1952231Y749749D01*
X1953293Y747185D01*
X1954983Y744983D01*
X1957185Y743293D01*
X1959749Y742231D01*
X1961230Y742036D01*
Y751230D01*
D02*
G37*
G36*
X1891977Y752530D02*
X1880000D01*
X1868023D01*
X1868270Y750657D01*
X1869483Y747728D01*
X1871413Y745213D01*
X1873928Y743283D01*
X1876420Y742251D01*
X1876646Y741100D01*
X1876420Y739949D01*
X1873928Y738917D01*
X1871413Y736987D01*
X1869483Y734472D01*
X1868270Y731543D01*
X1868023Y729670D01*
X1880000D01*
X1891977D01*
X1891730Y731543D01*
X1890517Y734472D01*
X1888587Y736987D01*
X1886072Y738917D01*
X1883580Y739949D01*
X1883354Y741100D01*
X1883580Y742251D01*
X1886072Y743283D01*
X1888587Y745213D01*
X1890517Y747728D01*
X1891730Y750657D01*
X1891977Y752530D01*
D02*
G37*
G36*
Y727130D02*
X1880000D01*
X1868023D01*
X1868270Y725257D01*
X1869483Y722328D01*
X1871413Y719813D01*
X1873928Y717883D01*
X1875963Y717040D01*
X1875566Y715040D01*
X1867960D01*
Y704270D01*
X1880000D01*
X1892040D01*
Y715040D01*
X1884434D01*
X1884037Y717040D01*
X1886072Y717883D01*
X1888587Y719813D01*
X1890517Y722328D01*
X1891730Y725257D01*
X1891977Y727130D01*
D02*
G37*
G36*
X1892040Y701730D02*
X1881270D01*
Y690960D01*
X1892040D01*
Y701730D01*
D02*
G37*
G36*
X1878730D02*
X1867960D01*
Y690960D01*
X1878730D01*
Y701730D01*
D02*
G37*
G36*
X1248770Y871472D02*
Y861270D01*
X1258972D01*
X1258743Y863012D01*
X1257580Y865820D01*
X1255730Y868230D01*
X1253320Y870080D01*
X1250512Y871243D01*
X1248770Y871472D01*
D02*
G37*
G36*
X1246230D02*
X1244488Y871243D01*
X1241680Y870080D01*
X1239270Y868230D01*
X1237420Y865820D01*
X1236257Y863012D01*
X1236028Y861270D01*
X1246230D01*
Y871472D01*
D02*
G37*
G36*
X1258972Y858730D02*
X1248770D01*
Y848528D01*
X1250512Y848757D01*
X1253320Y849920D01*
X1255730Y851770D01*
X1257580Y854180D01*
X1258743Y856988D01*
X1258972Y858730D01*
D02*
G37*
G36*
X1246230D02*
X1236028D01*
X1236257Y856988D01*
X1237420Y854180D01*
X1239270Y851770D01*
X1241680Y849920D01*
X1244488Y848757D01*
X1246230Y848528D01*
Y858730D01*
D02*
G37*
G36*
X1128770Y766472D02*
Y756270D01*
X1138972D01*
X1138743Y758012D01*
X1137580Y760820D01*
X1135730Y763230D01*
X1133320Y765080D01*
X1130512Y766243D01*
X1128770Y766472D01*
D02*
G37*
G36*
X1126230D02*
X1124488Y766243D01*
X1121680Y765080D01*
X1119270Y763230D01*
X1117420Y760820D01*
X1116257Y758012D01*
X1116028Y756270D01*
X1126230D01*
Y766472D01*
D02*
G37*
G36*
X1138972Y753730D02*
X1128770D01*
Y743528D01*
X1130512Y743757D01*
X1133320Y744920D01*
X1135730Y746770D01*
X1137580Y749180D01*
X1138743Y751987D01*
X1138972Y753730D01*
D02*
G37*
G36*
X1126230D02*
X1116028D01*
X1116257Y751987D01*
X1117420Y749180D01*
X1119270Y746770D01*
X1121680Y744920D01*
X1124488Y743757D01*
X1126230Y743528D01*
Y753730D01*
D02*
G37*
G36*
X1311270Y700464D02*
Y691270D01*
X1320464D01*
X1320269Y692751D01*
X1319207Y695315D01*
X1317517Y697517D01*
X1315316Y699207D01*
X1312751Y700269D01*
X1311270Y700464D01*
D02*
G37*
G36*
X1308730D02*
X1307249Y700269D01*
X1304685Y699207D01*
X1302483Y697517D01*
X1300793Y695315D01*
X1299731Y692751D01*
X1299536Y691270D01*
X1308730D01*
Y700464D01*
D02*
G37*
G36*
X1320464Y688730D02*
X1311270D01*
Y679536D01*
X1312751Y679731D01*
X1315316Y680793D01*
X1317517Y682483D01*
X1319207Y684685D01*
X1320269Y687249D01*
X1320464Y688730D01*
D02*
G37*
G36*
X1308730D02*
X1299536D01*
X1299731Y687249D01*
X1300793Y684685D01*
X1302483Y682483D01*
X1304685Y680793D01*
X1307249Y679731D01*
X1308730Y679536D01*
Y688730D01*
D02*
G37*
G36*
X1166270Y682777D02*
Y672070D01*
X1176977D01*
X1176730Y673943D01*
X1175517Y676872D01*
X1173587Y679387D01*
X1171072Y681317D01*
X1168143Y682530D01*
X1166270Y682777D01*
D02*
G37*
G36*
X1163730Y682777D02*
X1161857Y682530D01*
X1158928Y681317D01*
X1156413Y679387D01*
X1154483Y676872D01*
X1153270Y673943D01*
X1153023Y672070D01*
X1163730D01*
Y682777D01*
D02*
G37*
G36*
X1336670Y669351D02*
Y661670D01*
X1344351D01*
X1344207Y662760D01*
X1343776Y663800D01*
D01*
X1343296Y664959D01*
X1341847Y666847D01*
X1339959Y668296D01*
X1337760Y669207D01*
X1336670Y669351D01*
D02*
G37*
G36*
X1334130D02*
X1333040Y669207D01*
X1330841Y668296D01*
X1328953Y666847D01*
X1327504Y664959D01*
X1326593Y662760D01*
X1326449Y661670D01*
X1334130D01*
Y669351D01*
D02*
G37*
G36*
X1344351Y659130D02*
X1336670D01*
Y651449D01*
X1337760Y651593D01*
X1339959Y652504D01*
X1341847Y653953D01*
X1343296Y655841D01*
X1343776Y657000D01*
X1344207Y658040D01*
X1344351Y659130D01*
D02*
G37*
G36*
X1334130D02*
X1326449D01*
X1326593Y658040D01*
X1327504Y655841D01*
X1328953Y653953D01*
X1330841Y652504D01*
X1333040Y651593D01*
X1334130Y651449D01*
Y659130D01*
D02*
G37*
G36*
X1311270Y643951D02*
Y636270D01*
X1318951D01*
X1318807Y637360D01*
X1317896Y639559D01*
X1316447Y641447D01*
X1314559Y642896D01*
X1312360Y643807D01*
X1311270Y643951D01*
D02*
G37*
G36*
X1308730D02*
X1307640Y643807D01*
X1305441Y642896D01*
X1303553Y641447D01*
X1302104Y639559D01*
X1301193Y637360D01*
X1301049Y636270D01*
X1308730D01*
Y643951D01*
D02*
G37*
G36*
X1222540Y634290D02*
X1216270D01*
Y628770D01*
X1222540D01*
Y634290D01*
D02*
G37*
G36*
X1213730D02*
X1207460D01*
Y628770D01*
X1213730D01*
Y634290D01*
D02*
G37*
G36*
X1318951Y633730D02*
X1311270D01*
Y626049D01*
X1312360Y626193D01*
X1314559Y627104D01*
X1316447Y628553D01*
X1317896Y630441D01*
X1318807Y632640D01*
X1318951Y633730D01*
D02*
G37*
G36*
X1308730D02*
X1301049D01*
X1301193Y632640D01*
X1302104Y630441D01*
X1303553Y628553D01*
X1305441Y627104D01*
X1307640Y626193D01*
X1308730Y626049D01*
Y633730D01*
D02*
G37*
G36*
X1222540Y626230D02*
X1216270D01*
Y620710D01*
X1222540D01*
Y626230D01*
D02*
G37*
G36*
X1213730D02*
X1207460D01*
Y620710D01*
X1213730D01*
Y626230D01*
D02*
G37*
G36*
X1284600Y669518D02*
X1282240Y669207D01*
X1280041Y668296D01*
X1278153Y666847D01*
X1276704Y664959D01*
X1275793Y662760D01*
X1275482Y660400D01*
X1275793Y658040D01*
X1276704Y655841D01*
X1278153Y653953D01*
X1280041Y652504D01*
X1280361Y652371D01*
Y607540D01*
X1278710D01*
Y592460D01*
X1292290D01*
Y607540D01*
X1290639D01*
Y653639D01*
X1291047Y653953D01*
X1292496Y655841D01*
X1293407Y658040D01*
X1293718Y660400D01*
X1293407Y662760D01*
X1292496Y664959D01*
X1291047Y666847D01*
X1289159Y668296D01*
X1286960Y669207D01*
X1284600Y669518D01*
D02*
G37*
G36*
X1176977Y669530D02*
X1165000D01*
X1153023D01*
X1153270Y667657D01*
X1154483Y664728D01*
X1156413Y662213D01*
X1158928Y660283D01*
X1161420Y659251D01*
X1161647Y658100D01*
X1161420Y656949D01*
X1158928Y655917D01*
X1156413Y653987D01*
X1154483Y651472D01*
X1153270Y648543D01*
X1152856Y645400D01*
X1153270Y642257D01*
X1154483Y639328D01*
X1156413Y636813D01*
X1158928Y634883D01*
X1161420Y633851D01*
X1161646Y632700D01*
X1161420Y631549D01*
X1158928Y630517D01*
X1156413Y628587D01*
X1154483Y626072D01*
X1153270Y623143D01*
X1152856Y620000D01*
X1153270Y616857D01*
X1154483Y613928D01*
X1156413Y611413D01*
X1158928Y609483D01*
X1161420Y608451D01*
X1161647Y607300D01*
X1161420Y606149D01*
X1158928Y605117D01*
X1156413Y603187D01*
X1154483Y600672D01*
X1153270Y597743D01*
X1152856Y594600D01*
X1153270Y591457D01*
X1154483Y588528D01*
X1156413Y586013D01*
X1158928Y584083D01*
X1161857Y582870D01*
X1165000Y582456D01*
X1168143Y582870D01*
X1171072Y584083D01*
X1173587Y586013D01*
X1175517Y588528D01*
X1176730Y591457D01*
X1177144Y594600D01*
X1176730Y597743D01*
X1175517Y600672D01*
X1173587Y603187D01*
X1171072Y605117D01*
X1168580Y606149D01*
X1168353Y607300D01*
X1168580Y608451D01*
X1171072Y609483D01*
X1173587Y611413D01*
X1175517Y613928D01*
X1176730Y616857D01*
X1177144Y620000D01*
X1176730Y623143D01*
X1175517Y626072D01*
X1173587Y628587D01*
X1171072Y630517D01*
X1168580Y631549D01*
X1168354Y632700D01*
X1168580Y633851D01*
X1171072Y634883D01*
X1173587Y636813D01*
X1175517Y639328D01*
X1176730Y642257D01*
X1177144Y645400D01*
X1176730Y648543D01*
X1175517Y651472D01*
X1173587Y653987D01*
X1171072Y655917D01*
X1168580Y656949D01*
X1168353Y658100D01*
X1168580Y659251D01*
X1171072Y660283D01*
X1173587Y662213D01*
X1175517Y664728D01*
X1176730Y667657D01*
X1176977Y669530D01*
D02*
G37*
G36*
X1141270Y555464D02*
Y546270D01*
X1150464D01*
X1150269Y547752D01*
X1149207Y550316D01*
X1147517Y552517D01*
X1145315Y554207D01*
X1142751Y555269D01*
X1141270Y555464D01*
D02*
G37*
G36*
X1138730D02*
X1137249Y555269D01*
X1134685Y554207D01*
X1132483Y552517D01*
X1130793Y550316D01*
X1129731Y547752D01*
X1129536Y546270D01*
X1138730D01*
Y555464D01*
D02*
G37*
G36*
X1150464Y543730D02*
X1141270D01*
Y534536D01*
X1142751Y534731D01*
X1145315Y535793D01*
X1147517Y537483D01*
X1149207Y539685D01*
X1150269Y542248D01*
X1150464Y543730D01*
D02*
G37*
G36*
X1138730D02*
X1129536D01*
X1129731Y542248D01*
X1130793Y539685D01*
X1132483Y537483D01*
X1134685Y535793D01*
X1137249Y534731D01*
X1138730Y534536D01*
Y543730D01*
D02*
G37*
G36*
X1396500Y547827D02*
X1393879Y547482D01*
X1391437Y546470D01*
X1389339Y544861D01*
X1387730Y542763D01*
X1386718Y540321D01*
X1386373Y537700D01*
X1386718Y535079D01*
X1387730Y532637D01*
X1389339Y530539D01*
X1391437Y528930D01*
X1393879Y527918D01*
X1396500Y527573D01*
X1399121Y527918D01*
X1401563Y528930D01*
X1402777Y529861D01*
X1410210D01*
Y527460D01*
X1423790D01*
Y542540D01*
X1410210D01*
Y540139D01*
X1406306D01*
X1406282Y540321D01*
X1405270Y542763D01*
X1403661Y544861D01*
X1401563Y546470D01*
X1399121Y547482D01*
X1396500Y547827D01*
D02*
G37*
G36*
X1188230Y513083D02*
X1182210D01*
Y506813D01*
X1188230D01*
Y513083D01*
D02*
G37*
G36*
X1355540Y511730D02*
X1349270D01*
Y505710D01*
X1355540D01*
Y511730D01*
D02*
G37*
G36*
X1215040Y478790D02*
X1208770D01*
Y473270D01*
X1215040D01*
Y478790D01*
D02*
G37*
G36*
Y470730D02*
X1208770D01*
Y465210D01*
X1215040D01*
Y470730D01*
D02*
G37*
G36*
X1246205Y475830D02*
X1222625D01*
Y471940D01*
X1222625Y471560D01*
Y469940D01*
X1222625Y469560D01*
Y458860D01*
X1246205D01*
Y459261D01*
X1249093D01*
X1250198Y458414D01*
X1252032Y457654D01*
X1254000Y457395D01*
X1255968Y457654D01*
X1257803Y458414D01*
X1259378Y459622D01*
X1260586Y461198D01*
X1261346Y463032D01*
X1261605Y465000D01*
X1261346Y466968D01*
X1260586Y468802D01*
X1259378Y470378D01*
X1257803Y471586D01*
X1255968Y472346D01*
X1254000Y472605D01*
X1252032Y472346D01*
X1250198Y471586D01*
X1248622Y470378D01*
X1248205Y469834D01*
X1246205Y469940D01*
Y471560D01*
X1246205Y471940D01*
Y475830D01*
D02*
G37*
G36*
X1406251Y463730D02*
X1398570D01*
Y456049D01*
X1399660Y456193D01*
X1401859Y457104D01*
X1403747Y458553D01*
X1405196Y460441D01*
X1406107Y462640D01*
X1406251Y463730D01*
D02*
G37*
G36*
X1396030D02*
X1388349D01*
X1388493Y462640D01*
X1389404Y460441D01*
X1390853Y458553D01*
X1392741Y457104D01*
X1394940Y456193D01*
X1396030Y456049D01*
Y463730D01*
D02*
G37*
G36*
X1491727Y451472D02*
Y441270D01*
X1501930D01*
X1501700Y443013D01*
X1500538Y445820D01*
X1498688Y448230D01*
X1496277Y450080D01*
X1493470Y451243D01*
X1491727Y451472D01*
D02*
G37*
G36*
X1489187Y451472D02*
X1487445Y451243D01*
X1484638Y450080D01*
X1482227Y448230D01*
X1480377Y445820D01*
X1479214Y443013D01*
X1478985Y441270D01*
X1489187D01*
Y451472D01*
D02*
G37*
G36*
X1423970Y448551D02*
Y440870D01*
X1431651D01*
X1431507Y441960D01*
X1430596Y444159D01*
X1429147Y446047D01*
X1427259Y447496D01*
X1425060Y448407D01*
X1423970Y448551D01*
D02*
G37*
G36*
X1421430Y448551D02*
X1420340Y448407D01*
X1418141Y447496D01*
X1416253Y446047D01*
X1414804Y444159D01*
X1413893Y441960D01*
X1413749Y440870D01*
X1421430D01*
Y448551D01*
D02*
G37*
G36*
X1283040Y446290D02*
X1276770D01*
Y436270D01*
X1283040D01*
Y446290D01*
D02*
G37*
G36*
X1274230D02*
X1267960D01*
Y436270D01*
X1274230D01*
Y446290D01*
D02*
G37*
G36*
X1525000Y462648D02*
X1525000Y462648D01*
X1520000D01*
X1516726Y462217D01*
X1513676Y460954D01*
X1511056Y458944D01*
X1509046Y456324D01*
X1507783Y453274D01*
X1507352Y450000D01*
X1507783Y446726D01*
X1509046Y443676D01*
X1511056Y441056D01*
X1513676Y439046D01*
X1516726Y437783D01*
X1520000Y437352D01*
X1520278D01*
X1520676Y437046D01*
X1523726Y435783D01*
X1527000Y435352D01*
X1527000Y435352D01*
X1663847D01*
X1666335Y434321D01*
X1670000Y433839D01*
X1673665Y434321D01*
X1677081Y435736D01*
X1680013Y437987D01*
X1682264Y440919D01*
X1683679Y444335D01*
X1684161Y448000D01*
X1683679Y451665D01*
X1682264Y455081D01*
X1680013Y458013D01*
X1677081Y460264D01*
X1673665Y461679D01*
X1670000Y462161D01*
X1666335Y461679D01*
X1663847Y460648D01*
X1531722D01*
X1531324Y460954D01*
X1528274Y462217D01*
X1525000Y462648D01*
D02*
G37*
G36*
X1371270Y440464D02*
Y431270D01*
X1380464D01*
X1380269Y432752D01*
X1379207Y435316D01*
X1377517Y437517D01*
X1375316Y439207D01*
X1372751Y440269D01*
X1371270Y440464D01*
D02*
G37*
G36*
X1368730D02*
X1367249Y440269D01*
X1364684Y439207D01*
X1362483Y437517D01*
X1360793Y435316D01*
X1359731Y432752D01*
X1359536Y431270D01*
X1368730D01*
Y440464D01*
D02*
G37*
G36*
X1431651Y438330D02*
X1423970D01*
Y430649D01*
X1425060Y430793D01*
X1427259Y431704D01*
X1429147Y433153D01*
X1430596Y435041D01*
X1431507Y437240D01*
X1431651Y438330D01*
D02*
G37*
G36*
X1421430D02*
X1413749D01*
X1413893Y437240D01*
X1414804Y435041D01*
X1416253Y433153D01*
X1418141Y431704D01*
X1420340Y430793D01*
X1421430Y430649D01*
Y438330D01*
D02*
G37*
G36*
X1489187Y438730D02*
X1478985D01*
X1479214Y436987D01*
X1480377Y434180D01*
X1482227Y431770D01*
X1484638Y429920D01*
X1487445Y428757D01*
X1489187Y428528D01*
Y438730D01*
D02*
G37*
G36*
X1501930D02*
X1491727D01*
Y428528D01*
X1493470Y428757D01*
X1496277Y429920D01*
X1498688Y431770D01*
X1500538Y434180D01*
X1501700Y436987D01*
X1501930Y438730D01*
D02*
G37*
G36*
X1283040Y433730D02*
X1276770D01*
Y423710D01*
X1283040D01*
Y433730D01*
D02*
G37*
G36*
X1274230D02*
X1267960D01*
Y423710D01*
X1274230D01*
Y433730D01*
D02*
G37*
%LPD*%
D31*
X1285500Y600000D02*
D03*
X1269500D02*
D03*
X1417000Y535000D02*
D03*
X1433000D02*
D03*
D32*
X1210000Y540500D02*
D03*
Y524500D02*
D03*
X1207500Y488000D02*
D03*
Y472000D02*
D03*
X1235000Y585500D02*
D03*
Y569500D02*
D03*
X1329957Y544000D02*
D03*
Y528000D02*
D03*
X1215000Y611500D02*
D03*
Y627500D02*
D03*
D33*
X1189500Y505542D02*
D03*
X1205500D02*
D03*
X1312000Y582500D02*
D03*
X1328000D02*
D03*
D34*
X1304500Y435000D02*
D03*
X1275500D02*
D03*
D35*
X1304415Y553300D02*
D03*
Y540600D02*
D03*
Y527900D02*
D03*
Y515200D02*
D03*
Y502500D02*
D03*
Y489800D02*
D03*
Y477100D02*
D03*
Y464400D02*
D03*
X1234415D02*
D03*
Y477100D02*
D03*
Y489800D02*
D03*
Y502500D02*
D03*
Y515200D02*
D03*
Y527900D02*
D03*
Y540600D02*
D03*
Y553300D02*
D03*
D36*
X1187500Y525000D02*
D03*
Y541000D02*
D03*
X1348000Y529000D02*
D03*
Y513000D02*
D03*
D37*
X1165000Y539500D02*
D03*
Y525500D02*
D03*
D38*
X1320000Y560000D02*
X1320000D01*
X1330040Y544083D02*
Y580460D01*
X1574960Y550000D02*
X1600000D01*
X1510000Y485040D02*
X1574960Y550000D01*
X1304415Y502500D02*
X1338500D01*
X1453770Y485040D02*
X1510000D01*
X1445830Y477100D02*
X1453770Y485040D01*
X1313300Y553300D02*
X1320000Y560000D01*
X1322000Y543000D02*
X1328958D01*
X1319600Y540600D02*
X1322000Y543000D01*
X1304415Y540600D02*
X1319600D01*
X1328958Y543000D02*
X1329957Y544000D01*
X1304415Y553300D02*
X1313300D01*
X1217000Y472000D02*
X1222100Y477100D01*
X1207500Y472000D02*
X1217000D01*
X1222100Y477100D02*
X1234415D01*
X1255000Y512500D02*
Y515000D01*
X1304415Y477100D02*
X1445830D01*
X1329957Y544000D02*
X1330040Y544083D01*
X1328000Y582500D02*
X1330040Y580460D01*
X1396500Y537700D02*
X1399200Y535000D01*
X1417000D01*
X1433000Y500700D02*
Y535000D01*
X1422700Y490400D02*
X1433000Y500700D01*
X1527941Y640000D02*
X1528300Y640359D01*
Y680000D01*
X1337997Y501999D02*
X1337999D01*
X1338500Y502500D01*
X1304415Y515200D02*
X1345800D01*
X1348000Y513000D01*
X1324800Y489800D02*
X1325000Y490000D01*
X1304415Y489800D02*
X1324800D01*
X1347000Y528000D02*
X1348000Y529000D01*
X1329957Y528000D02*
X1347000D01*
X1304415Y527900D02*
X1304515Y528000D01*
X1329957D01*
X1252000Y465000D02*
X1254000D01*
X1251400Y464400D02*
X1252000Y465000D01*
X1234415Y464400D02*
X1251400D01*
X1285500Y527500D02*
X1285900Y527900D01*
X1304415D01*
X1215000Y600000D02*
X1269500D01*
X1210000Y557500D02*
X1215000Y562500D01*
X1210000Y543000D02*
Y557500D01*
X1234415Y553300D02*
X1235000Y553885D01*
X1187500Y541000D02*
X1209500D01*
X1210000Y540500D01*
X1234315D01*
X1234415Y540600D01*
X1222400Y527900D02*
X1234415D01*
X1219500Y525000D02*
X1222400Y527900D01*
X1220000Y502500D02*
X1234415D01*
X1217500Y505000D02*
X1220000Y502500D01*
X1205500Y505000D02*
X1217500D01*
X1205500Y505000D02*
X1205500Y505000D01*
X1224800Y489800D02*
X1234415D01*
X1247900Y527900D02*
X1302500Y582500D01*
X1310000D01*
X1234415Y527900D02*
X1247900D01*
X1187500Y525000D02*
X1219500D01*
X1235000Y553885D02*
Y569500D01*
X1304415Y464400D02*
Y477100D01*
Y435085D02*
Y464400D01*
Y435085D02*
X1304500Y435000D01*
X1234415Y515200D02*
X1234615Y515000D01*
X1252500D01*
X1255000Y512500D01*
X1215000Y562500D02*
Y600000D01*
Y611500D01*
X1396500Y639300D02*
X1433500D01*
X1434200Y640000D01*
X1235000Y585500D02*
X1262500D01*
X1207500Y488000D02*
X1223000D01*
X1224800Y489800D01*
X1285500Y600000D02*
Y659500D01*
X1284600Y660400D02*
X1285500Y659500D01*
D39*
X1734850Y685000D02*
X1790000D01*
X1670000D02*
X1734850D01*
X1790000D02*
X1855000Y620000D01*
X1525000Y450000D02*
X1527000Y448000D01*
X1520000Y450000D02*
X1525000D01*
X1754600Y704750D02*
X1804850Y755000D01*
X1734850Y685000D02*
X1753675Y703825D01*
X1880000Y830000D02*
Y855400D01*
X1875400D02*
X1880000D01*
X1832500Y812500D02*
X1875400Y855400D01*
X1772500Y812500D02*
X1832500D01*
X1880000Y855400D02*
Y880800D01*
X1527000Y448000D02*
X1670000D01*
X1715000Y755000D02*
X1772500Y812500D01*
X1665150Y755000D02*
X1715000D01*
X1490457Y590000D02*
X1537500D01*
X1587500Y640000D01*
Y677350D01*
X1665150Y755000D01*
X1426700Y715000D02*
Y755000D01*
Y680000D02*
Y715000D01*
X1505000D01*
X1545000Y755000D01*
X1630000D01*
X1402500D02*
X1426700D01*
X1472500Y860000D02*
X1527044D01*
Y857956D02*
Y860000D01*
Y857956D02*
X1630000Y755000D01*
X1665150D01*
X1918000Y625000D02*
X1946022D01*
X1913000Y620000D02*
X1918000Y625000D01*
D40*
X1855000Y620000D02*
X1885000D01*
X1913000D01*
X1867500Y477500D02*
Y491877D01*
X1885000Y509377D02*
Y594600D01*
X1867500Y491877D02*
X1885000Y509377D01*
D41*
X1165000Y539500D02*
X1179500D01*
X1181000Y541000D01*
X1187500D01*
X1165500Y525000D02*
X1187500D01*
X1165000Y525500D02*
X1165500Y525000D01*
D42*
X1665485Y760585D02*
X1665650Y760750D01*
D43*
X1472500Y860000D02*
D03*
X1247500D02*
D03*
X1490457Y590000D02*
D03*
Y440000D02*
D03*
X1127500Y755000D02*
D03*
X1402500D02*
D03*
X1630000D02*
D03*
X1480000D02*
D03*
X1802044Y860000D02*
D03*
X1527044D02*
D03*
D44*
X1335400Y660400D02*
D03*
X1310000Y635000D02*
D03*
X1284600Y660400D02*
D03*
X1422700Y490400D02*
D03*
X1397300Y465000D02*
D03*
X1422700Y439600D02*
D03*
D45*
X1426700Y680000D02*
D03*
X1528300D02*
D03*
X1527941Y640000D02*
D03*
X1426342D02*
D03*
X1396500Y639300D02*
D03*
Y537700D02*
D03*
D46*
X1310000Y690000D02*
D03*
X1370000Y430000D02*
D03*
X1140000Y545000D02*
D03*
X1962500Y752500D02*
D03*
D47*
X1165000Y594600D02*
D03*
Y620000D02*
D03*
Y645400D02*
D03*
Y670800D02*
D03*
X1880000Y728400D02*
D03*
Y753800D02*
D03*
Y830000D02*
D03*
Y855400D02*
D03*
Y880800D02*
D03*
D48*
X1885000Y594600D02*
D03*
Y620000D02*
D03*
X1520000Y450000D02*
D03*
D49*
X1885000Y645400D02*
D03*
D50*
X1946022Y679600D02*
D03*
D51*
Y625000D02*
D03*
Y570400D02*
D03*
D52*
X1880000Y703000D02*
D03*
D53*
X1670000Y685000D02*
D03*
D54*
Y448000D02*
D03*
D55*
X1665150Y755000D02*
D03*
X1804850D02*
D03*
D56*
X1980000Y860000D02*
D03*
X1152500Y860000D02*
D03*
X1150000Y460000D02*
D03*
X1980000D02*
D03*
D57*
X2010000Y517500D02*
D03*
X1987500D02*
D03*
X1957500Y512500D02*
D03*
X1942500Y502500D02*
D03*
X1925000Y472500D02*
D03*
Y450000D02*
D03*
Y425000D02*
D03*
X1380000Y520000D02*
D03*
Y500000D02*
D03*
X1367500Y525000D02*
D03*
X1320000Y560000D02*
D03*
X1835000Y525000D02*
D03*
X1730000Y630000D02*
D03*
X1620000Y570000D02*
D03*
X1640000Y590000D02*
D03*
X1670000Y600000D02*
D03*
X1690000D02*
D03*
X1710000D02*
D03*
Y620000D02*
D03*
X1690000D02*
D03*
X1670000D02*
D03*
X1650000Y610000D02*
D03*
X1747500Y570000D02*
D03*
X1732500D02*
D03*
X1770000D02*
D03*
X1810000D02*
D03*
X1787500D02*
D03*
X1747500Y585000D02*
D03*
X1600000Y550000D02*
D03*
X1230000Y635000D02*
D03*
X1215000Y642500D02*
D03*
X1120000Y600000D02*
D03*
Y630000D02*
D03*
Y660000D02*
D03*
Y690000D02*
D03*
X2010000Y620000D02*
D03*
Y660000D02*
D03*
Y710000D02*
D03*
Y750000D02*
D03*
Y790000D02*
D03*
X2003000Y570000D02*
D03*
X1770000Y510000D02*
D03*
Y530000D02*
D03*
X1750000D02*
D03*
X1530000Y520000D02*
D03*
X1560000D02*
D03*
X1780000Y890000D02*
D03*
X1810000D02*
D03*
X1710000Y830000D02*
D03*
X1740000Y880000D02*
D03*
X1690000Y820000D02*
D03*
X1630000Y880000D02*
D03*
X1690000D02*
D03*
Y850000D02*
D03*
X1660000Y820000D02*
D03*
X1620000Y850000D02*
D03*
X1660000D02*
D03*
X1720000D02*
D03*
Y880000D02*
D03*
X1660000D02*
D03*
X1600000Y870000D02*
D03*
X1580000Y890000D02*
D03*
X1490000Y790000D02*
D03*
X1390000Y810000D02*
D03*
X1420000D02*
D03*
X1470000Y790000D02*
D03*
X1480000Y810000D02*
D03*
X1390000Y890000D02*
D03*
X1420000D02*
D03*
Y860000D02*
D03*
X1390000D02*
D03*
X1330000Y810000D02*
D03*
X1420000Y830000D02*
D03*
X1390000D02*
D03*
X1360000Y890000D02*
D03*
Y860000D02*
D03*
Y830000D02*
D03*
Y800000D02*
D03*
Y770000D02*
D03*
Y730000D02*
D03*
X1325000Y445000D02*
D03*
X1372500Y450000D02*
D03*
X1230000Y667500D02*
D03*
Y697500D02*
D03*
Y745000D02*
D03*
X1222500Y432500D02*
D03*
X1252500D02*
D03*
X1295000Y790000D02*
D03*
X1250000D02*
D03*
X2002500Y542500D02*
D03*
X1927500Y525000D02*
D03*
X1902500D02*
D03*
X1857500D02*
D03*
X1810000D02*
D03*
X1892500Y425000D02*
D03*
X1865000D02*
D03*
X1837500D02*
D03*
X1810000D02*
D03*
X1782500D02*
D03*
X1755000D02*
D03*
X1730000Y435000D02*
D03*
X1705000Y432500D02*
D03*
X1612500Y425000D02*
D03*
X1592500D02*
D03*
X1575000D02*
D03*
X1555000D02*
D03*
X1750000Y472500D02*
D03*
Y502500D02*
D03*
Y490000D02*
D03*
X1615250Y504250D02*
D03*
X1592750D02*
D03*
X1567500Y500000D02*
D03*
X1545000D02*
D03*
X1632500Y425000D02*
D03*
X1535457Y425000D02*
D03*
X1285000Y507500D02*
D03*
X1282500Y542500D02*
D03*
X1190000Y560000D02*
D03*
X1140000Y567500D02*
D03*
X1122500D02*
D03*
X1210000Y460000D02*
D03*
Y790000D02*
D03*
X1170000D02*
D03*
X1255000Y515000D02*
D03*
X1337997Y501999D02*
D03*
X1325000Y490000D02*
D03*
X1254000Y465000D02*
D03*
X1285500Y527500D02*
D03*
X1262500Y585500D02*
D03*
X1867500Y477500D02*
D03*
M02*
